<svg width="24" height="25" viewBox="0 0 24 25" fill="none" xmlns="http://www.w3.org/2000/svg">
<g clip-path="url(#clip0_104_3568)">
<path d="M12 21.6772C16.9706 21.6772 21 17.6478 21 12.6772C21 7.70665 16.9706 3.67722 12 3.67722C7.02944 3.67722 3 7.70665 3 12.6772C3 17.6478 7.02944 21.6772 12 21.6772Z" stroke="#141921" stroke-width="2" stroke-linecap="round" stroke-linejoin="round"/>
<path d="M12 17.6772V17.6872" stroke="#141921" stroke-width="2" stroke-linecap="round" stroke-linejoin="round"/>
<path d="M12 14.1772C11.9816 13.8526 12.0692 13.5308 12.2495 13.2602C12.4299 12.9897 12.6933 12.7851 13 12.6772C13.3759 12.5335 13.7132 12.3044 13.9856 12.0082C14.2579 11.7119 14.4577 11.3564 14.5693 10.9698C14.6809 10.5832 14.7013 10.1759 14.6287 9.78008C14.5562 9.38425 14.3928 9.01066 14.1513 8.68873C13.9099 8.36679 13.597 8.1053 13.2373 7.92483C12.8776 7.74437 12.4809 7.64985 12.0785 7.64874C11.6761 7.64762 11.2789 7.73993 10.9182 7.9184C10.5576 8.09687 10.2432 8.35662 10 8.67721" stroke="#141921" stroke-width="2" stroke-linecap="round" stroke-linejoin="round"/>
</g>
<defs>
<clipPath id="clip0_104_3568">
<rect width="24" height="24" fill="white" transform="translate(0 0.677216)"/>
</clipPath>
</defs>
</svg>
