<svg width="12" height="12" viewBox="0 0 12 12" fill="none" xmlns="http://www.w3.org/2000/svg">
<rect width="12" height="12" rx="6" fill="#313A48"/>
<path d="M8.26913 7.89202C7.8934 8.26771 7.10776 9.05335 6.56712 9.59399C6.2538 9.90731 5.74638 9.90747 5.43306 9.59415C4.90187 9.06294 4.13141 8.2925 3.73091 7.89202C2.47772 6.63883 2.47772 4.60699 3.73091 3.3538C4.9841 2.1006 7.01594 2.1006 8.26913 3.3538C9.52229 4.60699 9.52229 6.63883 8.26913 7.89202Z" stroke="white" stroke-width="0.802249" stroke-linecap="round" stroke-linejoin="round"/>
<path d="M7.20362 5.6229C7.20362 6.28752 6.66487 6.82627 6.00025 6.82627C5.33563 6.82627 4.79688 6.28752 4.79688 5.6229C4.79688 4.9583 5.33563 4.41953 6.00025 4.41953C6.66487 4.41953 7.20362 4.9583 7.20362 5.6229Z" stroke="white" stroke-width="0.802249" stroke-linecap="round" stroke-linejoin="round"/>
</svg>
