<svg width="28" height="26" viewBox="0 0 28 26" fill="none" xmlns="http://www.w3.org/2000/svg">
<path d="M22.7272 6.9773H4.54541V4.70457H22.7272V6.9773ZM20.4545 0.159119H6.81814V2.43185H20.4545V0.159119Z" fill="#141921"/>
<path d="M11.7178 21.8637L7.96777 18.1137L9.55868 16.5228L11.7178 18.6818L17.7405 12.6591L19.3314 14.25L11.7178 21.8637Z" fill="#FAAD1D"/>
<path d="M25 9.25H2.27273C1.66996 9.25 1.09189 9.48945 0.665666 9.91567C0.239447 10.3419 0 10.92 0 11.5227L0 22.8864C0 23.4891 0.239447 24.0672 0.665666 24.4934C1.09189 24.9196 1.66996 25.1591 2.27273 25.1591H25C25.6028 25.1591 26.1808 24.9196 26.6071 24.4934C27.0333 24.0672 27.2727 23.4891 27.2727 22.8864V11.5227C27.2727 10.92 27.0333 10.3419 26.6071 9.91567C26.1808 9.48945 25.6028 9.25 25 9.25ZM25 22.8864H2.27273V11.5227H25V22.8864Z" fill="#141921"/>
</svg>
