<svg width="25" height="26" viewBox="0 0 25 26" fill="none" xmlns="http://www.w3.org/2000/svg">
<path d="M19.8918 24.6338L19.8915 24.6341C19.6715 24.8554 19.4097 25.0307 19.1212 25.1497C18.8332 25.2685 18.5244 25.3289 18.2127 25.3273C13.4494 25.2145 8.90345 23.3112 5.48055 19.9968C2.16609 16.5739 0.262843 12.0279 0.150032 7.26452C0.148407 6.95293 0.208771 6.64413 0.327616 6.35608C0.446629 6.06763 0.621903 5.80577 0.843211 5.58578L0.843213 5.58579L0.84392 5.58507L4.21785 2.18614C4.21797 2.18603 4.21808 2.18591 4.2182 2.1858C4.42424 1.98116 4.70285 1.86631 4.99326 1.86631C5.28375 1.86631 5.56244 1.98123 5.76849 2.18597C5.76855 2.18603 5.76861 2.18608 5.76867 2.18614L10.7675 7.18498C10.7675 7.18501 10.7676 7.18503 10.7676 7.18506C10.9724 7.39112 11.0873 7.66985 11.0873 7.96039C11.0873 8.25095 10.9724 8.52972 10.7675 8.73579L10.7675 8.73581L8.7802 10.7356L8.71931 10.7969L8.74174 10.8803C9.1196 12.2855 9.80959 13.5874 10.7603 14.6889L10.7674 14.6972L10.7756 14.7043C11.8756 15.6577 13.1783 16.3481 14.5848 16.7232L14.6681 16.7454L14.7292 16.6846L16.729 14.6973L16.729 14.6973C16.9351 14.4925 17.2139 14.3775 17.5044 14.3775C17.7949 14.3775 18.0736 14.4924 18.2797 14.6972C18.2797 14.6972 18.2798 14.6973 18.2798 14.6973L23.2787 19.6961C23.2788 19.6962 23.2789 19.6963 23.279 19.6964C23.4836 19.9025 23.5985 20.1811 23.5985 20.4716C23.5985 20.762 23.4836 21.0406 23.279 21.2467C23.2789 21.2468 23.2788 21.2469 23.2787 21.247L19.8918 24.6338ZM5.10558 4.63591L4.99951 4.52985L4.89344 4.63591L2.39371 7.13564L2.34817 7.18119L2.34983 7.24558C2.45779 11.434 4.13174 15.4299 7.04135 18.4447L7.04128 18.4448L7.04523 18.4486C10.0588 21.3507 14.0494 23.0198 18.2317 23.1275L18.2961 23.1291L18.3417 23.0836L20.8414 20.5839L20.9475 20.4778L20.8414 20.3717L17.6042 17.1346L17.497 17.0273L17.3909 17.1358L15.78 18.7841C15.7798 18.7844 15.7796 18.7846 15.7794 18.7848C15.6503 18.913 15.4915 19.0072 15.3171 19.059C15.1427 19.1107 14.9582 19.1184 14.7801 19.0813C12.7198 18.6223 10.8101 17.647 9.23038 16.247C7.83261 14.6666 6.85765 12.758 6.39641 10.699C6.36388 10.5188 6.37687 10.3333 6.43422 10.1593C6.49187 9.98441 6.5925 9.82681 6.72688 9.70093L6.72694 9.70099L6.7304 9.69753L8.34273 8.0852L8.4488 7.97913L8.34273 7.87307L5.10558 4.63591Z" fill="#141921" stroke="white" stroke-width="0.3"/>
<path d="M24.0679 7.44182C24.596 8.75704 24.8613 10.1624 24.8496 11.5787H22.6515C22.6702 10.4506 22.467 9.32932 22.0529 8.27871C21.6199 7.17994 20.9655 6.18198 20.1304 5.34687C19.2953 4.51176 18.2973 3.85735 17.1985 3.42432C16.1479 3.01028 15.0266 2.80709 13.8985 2.82577V0.627669C15.3148 0.615919 16.7202 0.881288 18.0354 1.40934C19.3961 1.95563 20.632 2.77175 21.6687 3.8085C22.7055 4.84526 23.5216 6.0812 24.0679 7.44182Z" fill="#FFAF19" stroke="white" stroke-width="0.3"/>
<path d="M13.7485 7.9791C16.3733 7.9791 17.4981 9.10398 17.4981 11.7287H19.9979C19.9979 7.70413 17.7731 5.47937 13.7485 5.47937V7.9791Z" fill="#FFAF19"/>
</svg>
