<svg width="25" height="26" viewBox="0 0 25 26" fill="none" xmlns="http://www.w3.org/2000/svg">
<path d="M22.0152 13.976V13.2955V12.606L23.7343 11.1018C24.0512 10.8224 24.2592 10.4401 24.3214 10.0223C24.3837 9.60446 24.2962 9.17809 24.0746 8.81851L21.9614 5.23694C21.8044 4.96498 21.5786 4.73909 21.3067 4.58193C21.0349 4.42477 20.7264 4.34187 20.4124 4.34155C20.2178 4.34006 20.0242 4.3703 19.8393 4.43109L17.6635 5.16531C17.2879 4.91568 16.896 4.69134 16.4906 4.49377L16.0339 2.23738C15.9521 1.82515 15.7278 1.45484 15.4004 1.1913C15.073 0.927749 14.6634 0.787747 14.2431 0.7958H10.0527C9.63251 0.787747 9.22285 0.927749 8.89546 1.1913C8.56807 1.45484 8.34381 1.82515 8.26193 2.23738L7.80528 4.49377C7.39692 4.69129 7.00209 4.91563 6.62336 5.16531L4.49233 4.39528C4.30546 4.34659 4.11194 4.32845 3.91928 4.34155C3.60524 4.34187 3.29681 4.42477 3.02493 4.58193C2.75305 4.73909 2.52727 4.96498 2.37025 5.23694L0.257127 8.81851C0.0481306 9.17755 -0.0295316 9.59809 0.0374416 10.0081C0.104415 10.4181 0.311856 10.7921 0.624237 11.0659L2.31653 12.615V13.9849L0.624237 15.4892C0.303032 15.765 0.0899171 16.1456 0.0227118 16.5636C-0.0444934 16.9816 0.0385578 17.4099 0.257127 17.7724L2.37025 21.354C2.52727 21.626 2.75305 21.8519 3.02493 22.009C3.29681 22.1662 3.60524 22.2491 3.91928 22.2494C4.11389 22.2509 4.30745 22.2206 4.49233 22.1599L6.66813 21.4256C7.04379 21.6753 7.43564 21.8996 7.8411 22.0972L8.29775 24.3536C8.37963 24.7658 8.60389 25.1361 8.93128 25.3996C9.25867 25.6632 9.66832 25.8032 10.0885 25.7951H14.3148C14.735 25.8032 15.1446 25.6632 15.472 25.3996C15.7994 25.1361 16.0237 24.7658 16.1056 24.3536L16.5622 22.0972C16.9706 21.8997 17.3654 21.6753 17.7441 21.4256L19.911 22.1599C20.0959 22.2206 20.2894 22.2509 20.484 22.2494C20.7981 22.2491 21.1065 22.1662 21.3784 22.009C21.6503 21.8519 21.876 21.626 22.0331 21.354L24.0746 17.7724C24.2835 17.4134 24.3612 16.9929 24.2942 16.5828C24.2273 16.1728 24.0198 15.7989 23.7074 15.525L22.0152 13.976ZM20.4124 20.4586L17.3412 19.42C16.6223 20.0289 15.8006 20.5049 14.9147 20.8257L14.279 24.0402H10.0527L9.41699 20.8615C8.53809 20.5317 7.72086 20.0564 6.99943 19.4558L3.91928 20.4586L1.80615 16.877L4.24162 14.7281C4.07606 13.8012 4.07606 12.8524 4.24162 11.9255L1.80615 9.7139L3.91928 6.13234L6.99047 7.17099C7.70942 6.56203 8.53109 6.086 9.41699 5.76523L10.0527 2.55077H14.279L14.9147 5.72941C15.7936 6.05929 16.6108 6.53449 17.3323 7.13518L20.4124 6.13234L22.5255 9.7139L20.0901 11.8628C20.2556 12.7897 20.2556 13.7386 20.0901 14.6654L22.5255 16.877L20.4124 20.4586Z" fill="#141921"/>
<path d="M12.1656 18.6678C11.103 18.6678 10.0643 18.3527 9.18085 17.7624C8.29737 17.1721 7.60878 16.333 7.20216 15.3514C6.79554 14.3697 6.68915 13.2895 6.89644 12.2474C7.10374 11.2052 7.6154 10.248 8.36674 9.49662C9.11808 8.74529 10.0753 8.23362 11.1175 8.02633C12.1596 7.81903 13.2398 7.92542 14.2215 8.33204C15.2031 8.73866 16.0422 9.42725 16.6325 10.3107C17.2228 11.1942 17.5379 12.2329 17.5379 13.2954C17.5451 14.003 17.411 14.7048 17.1436 15.3598C16.8762 16.0149 16.4807 16.61 15.9804 17.1103C15.4801 17.6106 14.885 18.006 14.2299 18.2735C13.5749 18.5409 12.8731 18.675 12.1656 18.6678ZM12.1656 9.71388C11.6922 9.70285 11.2215 9.78796 10.782 9.96405C10.3425 10.1401 9.94326 10.4035 9.60846 10.7383C9.27366 11.0731 9.01025 11.4724 8.83416 11.9119C8.65808 12.3514 8.57297 12.8221 8.584 13.2954C8.57297 13.7688 8.65808 14.2395 8.83416 14.679C9.01025 15.1185 9.27366 15.5177 9.60846 15.8526C9.94326 16.1874 10.3425 16.4508 10.782 16.6269C11.2215 16.8029 11.6922 16.888 12.1656 16.877C12.6389 16.888 13.1096 16.8029 13.5491 16.6269C13.9886 16.4508 14.3879 16.1874 14.7227 15.8526C15.0575 15.5177 15.3209 15.1185 15.497 14.679C15.6731 14.2395 15.7582 13.7688 15.7471 13.2954C15.7582 12.8221 15.6731 12.3514 15.497 11.9119C15.3209 11.4724 15.0575 11.0731 14.7227 10.7383C14.3879 10.4035 13.9886 10.1401 13.5491 9.96405C13.1096 9.78796 12.6389 9.70285 12.1656 9.71388Z" fill="#FFAF19"/>
</svg>
