<svg width="36" height="36" viewBox="0 0 36 36" fill="none" xmlns="http://www.w3.org/2000/svg">
<path d="M2.25 26.4375C2.25 27.4818 2.66484 28.4833 3.40327 29.2217C4.14169 29.9602 5.14321 30.375 6.1875 30.375H29.8125C30.8568 30.375 31.8583 29.9602 32.5967 29.2217C33.3352 28.4833 33.75 27.4818 33.75 26.4375V15.6094H2.25V26.4375ZM6.89062 21.0938C6.89062 20.5343 7.11286 19.9978 7.50845 19.6022C7.90403 19.2066 8.44056 18.9844 9 18.9844H12.375C12.9344 18.9844 13.471 19.2066 13.8666 19.6022C14.2621 19.9978 14.4844 20.5343 14.4844 21.0938V22.5C14.4844 23.0594 14.2621 23.596 13.8666 23.9916C13.471 24.3871 12.9344 24.6094 12.375 24.6094H9C8.44056 24.6094 7.90403 24.3871 7.50845 23.9916C7.11286 23.596 6.89062 23.0594 6.89062 22.5V21.0938Z" fill="#F8AB1E"/>
<path d="M29.8125 5.625H6.1875C5.14321 5.625 4.14169 6.03984 3.40327 6.77827C2.66484 7.51669 2.25 8.51821 2.25 9.5625V11.3906H33.75V9.5625C33.75 8.51821 33.3352 7.51669 32.5967 6.77827C31.8583 6.03984 30.8568 5.625 29.8125 5.625Z" fill="#F8AB1E"/>
</svg>
