<svg width="18" height="63" viewBox="0 0 18 63" fill="none" xmlns="http://www.w3.org/2000/svg">
<path d="M9 8V58.5" stroke="#313A48" stroke-width="2" stroke-miterlimit="10" stroke-linecap="round" stroke-linejoin="round" stroke-dasharray="1 3"/>
<circle cx="9" cy="54" r="9" fill="#313A48"/>
<path d="M8.84615 54.0955C9.11058 54.0955 9.33702 53.9957 9.52548 53.7959C9.71362 53.5965 9.80769 53.3567 9.80769 53.0764C9.80769 52.7962 9.71362 52.5562 9.52548 52.3564C9.33702 52.157 9.11058 52.0573 8.84615 52.0573C8.58173 52.0573 8.35545 52.157 8.16731 52.3564C7.97885 52.5562 7.88462 52.7962 7.88462 53.0764C7.88462 53.3567 7.97885 53.5965 8.16731 53.7959C8.35545 53.9957 8.58173 54.0955 8.84615 54.0955ZM8.84615 59C8.78205 59 8.71795 58.9873 8.65385 58.9618C8.58974 58.9363 8.53365 58.9023 8.48558 58.8599C7.31571 57.7643 6.44231 56.7474 5.86538 55.8092C5.28846 54.8706 5 53.9936 5 53.1783C5 51.9045 5.3867 50.8896 6.1601 50.1338C6.93317 49.3779 7.82853 49 8.84615 49C9.86378 49 10.7591 49.3779 11.5322 50.1338C12.3056 50.8896 12.6923 51.9045 12.6923 53.1783C12.6923 53.9936 12.4038 54.8706 11.8269 55.8092C11.25 56.7474 10.3766 57.7643 9.20673 58.8599C9.15865 58.9023 9.10256 58.9363 9.03846 58.9618C8.97436 58.9873 8.91026 59 8.84615 59Z" fill="white"/>
<circle cx="9" cy="9" r="9" fill="#F8AB1E"/>
<circle cx="9" cy="9" r="4" fill="white"/>
</svg>
