<svg width="23" height="24" viewBox="0 0 23 24" fill="none" xmlns="http://www.w3.org/2000/svg">
<path fill-rule="evenodd" clip-rule="evenodd" d="M16.8696 11.0041L11.0616 5.18607C10.8759 5.00041 10.6241 4.89609 10.3616 4.89609C10.099 4.89609 9.84722 5.00041 9.66157 5.18607C9.47592 5.37172 9.37162 5.62353 9.37162 5.88608C9.37162 6.14863 9.47592 6.40044 9.66157 6.58609L13.7876 10.7191H1.45657C1.20011 10.7272 0.956883 10.8348 0.778355 11.0191C0.599826 11.2034 0.5 11.45 0.5 11.7066C0.5 11.9632 0.599826 12.2097 0.778355 12.394C0.956883 12.5783 1.20011 12.6859 1.45657 12.6941H13.7896L9.66457 16.83C9.48134 17.017 9.37872 17.2683 9.37872 17.5301C9.37872 17.7918 9.48134 18.0431 9.66457 18.2301C9.75568 18.322 9.8641 18.3949 9.98355 18.4447C10.103 18.4945 10.2312 18.5202 10.3606 18.5202C10.49 18.5202 10.6181 18.4945 10.7376 18.4447C10.857 18.3949 10.9655 18.322 11.0566 18.2301L16.8646 12.4121C17.0509 12.2255 17.1559 11.9728 17.1569 11.7091C17.1578 11.4454 17.0546 11.192 16.8696 11.0041ZM21.7076 0.159088H15.2076C14.9455 0.159088 14.6942 0.26317 14.5089 0.448456C14.3237 0.633742 14.2196 0.88503 14.2196 1.14706C14.2196 1.4091 14.3237 1.66039 14.5089 1.84567C14.6942 2.03096 14.9455 2.13504 15.2076 2.13504H20.7196V21.2621H15.2086C14.9521 21.2702 14.7089 21.3779 14.5304 21.5622C14.3518 21.7465 14.252 21.993 14.252 22.2495C14.252 22.5061 14.3518 22.7527 14.5304 22.937C14.7089 23.1213 14.9521 23.2289 15.2086 23.237H21.7086C21.9701 23.236 22.2206 23.1315 22.4053 22.9464C22.5901 22.7613 22.694 22.5106 22.6946 22.2491V1.14908C22.6946 0.887033 22.5907 0.635679 22.4057 0.450104C22.2207 0.264529 21.9696 0.159882 21.7076 0.159088Z" fill="#FF4D33"/>
</svg>
