<svg width="22" height="18" viewBox="0 0 22 18" fill="none" xmlns="http://www.w3.org/2000/svg">
<path d="M21.1228 0.0606384H14.5983C14.1503 0.0606384 13.5228 0.320532 13.2064 0.636972L5.11707 8.7263C4.96454 8.87955 4.87891 9.08696 4.87891 9.30318C4.87891 9.5194 4.96454 9.72681 5.11707 9.88006L12.119 16.882C12.2722 17.0345 12.4796 17.1201 12.6959 17.1201C12.9121 17.1201 13.1195 17.0345 13.2727 16.882L21.3621 8.79263C21.6796 8.47511 21.9384 7.84875 21.9384 7.40074V0.876205C21.9378 0.66008 21.8517 0.45297 21.6989 0.300146C21.5461 0.147322 21.339 0.0612125 21.1228 0.0606384ZM17.045 6.58517C16.8307 6.5851 16.6186 6.54282 16.4206 6.46076C16.2227 6.37869 16.0429 6.25844 15.8914 6.10688C15.7399 5.95531 15.6198 5.7754 15.5379 5.57741C15.4559 5.37941 15.4138 5.16722 15.4139 4.95295C15.4139 4.73867 15.4562 4.52651 15.5383 4.32858C15.6203 4.13064 15.7406 3.9508 15.8922 3.79934C16.0437 3.64787 16.2236 3.52775 16.4216 3.44581C16.6196 3.36388 16.8318 3.32174 17.0461 3.32182C17.4788 3.32196 17.8938 3.49401 18.1997 3.80011C18.5056 4.10621 18.6774 4.52129 18.6772 4.95404C18.6771 5.38678 18.505 5.80175 18.1989 6.10765C17.8928 6.41354 17.4777 6.58531 17.045 6.58517Z" fill="#FFAF19"/>
<path d="M2.36488 9.30372L11.608 0.0606384H10.2487C9.80067 0.0606384 9.17323 0.320532 8.85679 0.636972L0.767458 8.7263C0.614928 8.87955 0.529297 9.08696 0.529297 9.30318C0.529297 9.5194 0.614928 9.72681 0.767458 9.88006L7.76937 16.882C7.92261 17.0345 8.13003 17.1201 8.34625 17.1201C8.56246 17.1201 8.76988 17.0345 8.92312 16.882L9.43421 16.3709L2.36597 9.30264L2.36488 9.30372Z" fill="#FFAF19"/>
</svg>
