<svg width="25" height="25" viewBox="0 0 25 25" fill="none" xmlns="http://www.w3.org/2000/svg">
<path d="M4.95221 10.5849C5.13974 10.3974 5.39405 10.2921 5.65921 10.2921C5.92437 10.2921 6.17868 10.3974 6.36621 10.5849L11.6592 15.8779L16.9522 10.5849C17.0445 10.4894 17.1548 10.4132 17.2768 10.3608C17.3988 10.3084 17.53 10.2808 17.6628 10.2796C17.7956 10.2785 17.9273 10.3038 18.0502 10.3541C18.1731 10.4043 18.2847 10.4786 18.3786 10.5725C18.4725 10.6664 18.5468 10.778 18.597 10.9009C18.6473 11.0238 18.6726 11.1555 18.6715 11.2883C18.6703 11.4211 18.6427 11.5523 18.5903 11.6743C18.5379 11.7963 18.4617 11.9066 18.3662 11.9989L12.3662 17.9989C12.1787 18.1863 11.9244 18.2917 11.6592 18.2917C11.394 18.2917 11.1397 18.1863 10.9522 17.9989L4.95221 11.9989C4.76474 11.8113 4.65942 11.557 4.65942 11.2919C4.65942 11.0267 4.76474 10.7724 4.95221 10.5849Z" fill="#141921"/>
</svg>
