<svg width="17" height="13" viewBox="0 0 17 13" fill="none" xmlns="http://www.w3.org/2000/svg">
<path d="M2.14366 0.199036H14.8017C15.9958 0.199036 16.5977 0.78289 16.5977 1.97039V10.3027C16.5977 11.4803 15.9958 12.074 14.8017 12.074H2.14366C0.949508 12.074 0.347656 11.4803 0.347656 10.3027V1.97039C0.347656 0.78289 0.949508 0.199036 2.14366 0.199036ZM8.46788 8.70945L14.9067 3.23706C15.136 3.03914 15.3175 2.58393 15.0309 2.1782C14.7539 1.77247 14.2476 1.76258 13.9132 2.00997L8.46788 5.82976L3.03211 2.00997C2.69774 1.76258 2.19142 1.77247 1.91438 2.1782C1.62779 2.58393 1.8093 3.03914 2.03857 3.23706L8.46788 8.70945Z" fill="#141921"/>
</svg>
