<svg width="200" height="80" viewBox="0 0 200 80" fill="none" xmlns="http://www.w3.org/2000/svg">
<g clip-path="url(#clip0_588_2359)">
<path d="M76.5027 79.4024H10.9933C9.0345 79.4179 7.1073 78.9039 5.41163 77.9137C3.71597 76.9235 2.31363 75.4931 1.35005 73.7711C0.230603 71.7115 -0.19752 69.3409 0.129914 67.0149C0.457348 64.6888 1.52268 62.5326 3.16617 60.8695L40.4693 23.2114H1.02859C0.815466 23.2114 0.611078 23.126 0.460374 22.9738C0.30967 22.8216 0.224994 22.6152 0.224994 22.4V2.31733C0.224994 2.10213 0.30967 1.89575 0.460374 1.74358C0.611078 1.59141 0.815466 1.50591 1.02859 1.50591H66.1202C68.0782 1.4896 70.0048 2.00241 71.7004 2.99115C73.396 3.97988 74.7988 5.40856 75.7634 7.12908C76.8819 9.18956 77.3087 11.5606 76.9798 13.8867C76.6509 16.2128 75.584 18.3685 73.9392 20.0307L36.6442 57.6888H76.4465C76.6596 57.6888 76.864 57.7742 77.0147 57.9264C77.1654 58.0786 77.2501 58.285 77.2501 58.5002V78.5747C77.2547 78.7832 77.1796 78.9855 77.0405 79.1396C76.9013 79.2938 76.7088 79.3878 76.5027 79.4024Z" fill="#F9AC1E"/>
<path d="M98.7866 33.0946H82.2244C81.7761 33.0946 81.4127 33.4615 81.4127 33.9141V78.7451C81.4127 79.1977 81.7761 79.5647 82.2244 79.5647H98.7866C99.2348 79.5647 99.5982 79.1977 99.5982 78.7451V33.9141C99.5982 33.4615 99.2348 33.0946 98.7866 33.0946Z" fill="#F9AC1E"/>
<path d="M90.5095 3.94829H90.5014C85.4819 3.94829 81.4127 8.05705 81.4127 13.1255V13.6854C81.4127 18.7538 85.4819 22.8625 90.5014 22.8625H90.5095C95.529 22.8625 99.5982 18.7538 99.5982 13.6854V13.1255C99.5982 8.05705 95.529 3.94829 90.5095 3.94829Z" fill="#F9AC1E"/>
<path d="M136.049 61.3158H104.275V42.9533H136.033C136.247 42.9533 136.451 43.0388 136.602 43.191C136.752 43.3431 136.837 43.5495 136.837 43.7647V60.4881C136.839 60.5947 136.82 60.7006 136.782 60.7999C136.744 60.8992 136.686 60.9899 136.613 61.0667C136.54 61.1436 136.453 61.2051 136.356 61.2479C136.259 61.2906 136.155 61.3137 136.049 61.3158Z" fill="#F9AC1E"/>
<path d="M121.038 79.5565H104.468C104.255 79.5565 104.051 79.4711 103.9 79.3189C103.749 79.1667 103.664 78.9603 103.664 78.7451V34.4253H121.85V78.737C121.851 78.8449 121.831 78.952 121.79 79.0519C121.75 79.1518 121.69 79.2426 121.615 79.3189C121.539 79.3952 121.449 79.4556 121.35 79.4964C121.251 79.5372 121.145 79.5576 121.038 79.5565Z" fill="#F9AC1E"/>
<path d="M173.602 79.4024H147.404C147.191 79.4024 146.987 79.3169 146.836 79.1647C146.685 79.0126 146.601 78.8062 146.601 78.591V65.3486C146.601 65.1334 146.685 64.927 146.836 64.7748C146.987 64.6226 147.191 64.5371 147.404 64.5371H173.602C178.126 64.5371 181.806 57.3317 181.806 52.7634V7.02358C181.806 6.80838 181.891 6.60198 182.042 6.44981C182.193 6.29764 182.397 6.21216 182.61 6.21216H199.18C199.393 6.21216 199.598 6.29764 199.749 6.44981C199.899 6.60198 199.984 6.80838 199.984 7.02358V52.7553C199.984 59.8211 197.205 66.5977 192.257 71.5948C187.31 76.5918 180.599 79.4002 173.602 79.4024Z" fill="#F9AC1E"/>
<path d="M199.992 20.2498V23.6091C199.98 30.5744 197.491 37.3037 192.979 42.5726C188.467 47.8414 182.232 51.2996 175.408 52.3178C168.584 53.336 161.625 51.8465 155.796 48.1205C149.968 44.3944 145.658 38.6794 143.652 32.0154C143.427 31.2689 143.234 30.5142 143.065 29.7434C142.896 28.9725 142.8 28.3721 142.703 27.6743C142.539 26.4856 142.448 25.2878 142.43 24.0878V23.6091C142.44 21.7842 142.988 20.0038 144.005 18.4952C145.022 16.9867 146.462 15.8186 148.139 15.1401C149.817 14.4616 151.657 14.3035 153.424 14.6861C155.191 15.0688 156.805 15.9747 158.06 17.2881C159.233 19.5612 160.093 21.9854 160.616 24.4935C160.67 25.18 160.791 25.8594 160.977 26.5221C161.675 29.0095 163.239 31.1585 165.383 32.5731C167.526 33.9876 170.103 34.5724 172.639 34.2197C175.176 33.8669 177.5 32.6004 179.185 30.6535C180.87 28.7066 181.801 26.2106 181.806 23.6253V20.266L199.992 20.2498Z" fill="#F9AC1E"/>
<path d="M161.258 30.5791V32.0154H143.652C143.427 31.2688 143.234 30.5142 143.065 29.7434C143.019 29.0425 142.898 28.3487 142.703 27.6742C142.005 25.1861 140.44 23.0367 138.296 21.6222C136.152 20.2076 133.574 19.6234 131.037 19.9773C128.5 20.3311 126.175 21.599 124.491 23.5474C122.808 25.4958 121.878 27.9932 121.874 30.5791V34.7093H103.664V30.5791C103.664 14.5455 116.586 0.556553 132.465 0.556553C143.595 0.556553 153.271 7.91615 158.06 17.2718C159.233 19.5449 160.093 21.9691 160.616 24.4772C160.768 25.1426 160.889 25.8161 160.977 26.5058C161.165 27.8553 161.259 29.2164 161.258 30.5791Z" fill="#F9AC1E"/>
</g>
<defs>
<clipPath id="clip0_588_2359">
<rect width="200" height="79" fill="white" transform="translate(0 0.556549)"/>
</clipPath>
</defs>
</svg>
