<svg width="16" height="16" viewBox="0 0 16 16" fill="none" xmlns="http://www.w3.org/2000/svg">
<path d="M0.5 1.50409C0.5 0.986327 0.919737 0.566589 1.4375 0.566589H3.45582C3.9141 0.566589 4.30522 0.897911 4.38057 1.34996L5.07367 5.50859C5.14133 5.91457 4.93631 6.31719 4.56819 6.50125L3.11681 7.22694C4.16334 9.8275 6.23908 11.9032 8.83963 12.9497L9.56534 11.4984C9.74937 11.1302 10.152 10.9252 10.558 10.9929L14.7166 11.686C15.1687 11.7614 15.5 12.1525 15.5 12.6107V14.6291C15.5 15.1469 15.0803 15.5666 14.5625 15.5666H12.6875C5.95653 15.5666 0.5 10.1101 0.5 3.37909V1.50409Z" fill="#141921"/>
</svg>
