<svg width="24" height="25" viewBox="0 0 24 25" fill="none" xmlns="http://www.w3.org/2000/svg">
<path d="M20 3.5795H4C3.447 3.5795 3 4.0265 3 4.5795V7.1695C3 7.6925 3.213 8.2065 3.583 8.5765L9 13.9935V21.5795C9 21.9265 9.18 22.2475 9.475 22.4305C9.635 22.5295 9.817 22.5795 10 22.5795C10.153 22.5795 10.306 22.5445 10.447 22.4745L14.447 20.4745C14.786 20.3045 15 19.9585 15 19.5795V13.9935L20.417 8.5765C20.787 8.2065 21 7.6925 21 7.1695V4.5795C21 4.0265 20.553 3.5795 20 3.5795ZM13.293 12.8725C13.105 13.0595 13 13.3135 13 13.5795V18.9615L11 19.9615V13.5795C11 13.3135 10.895 13.0595 10.707 12.8725L5 7.1695V5.5795H19.001L19.003 7.1625L13.293 12.8725Z" fill="#141921"/>
</svg>
