<svg width="21" height="19" viewBox="0 0 21 19" fill="none" xmlns="http://www.w3.org/2000/svg">
<path d="M8 4.27128V7.09976H5V4.27128H8ZM9.5 2.85704H3.5V8.514H9.5V2.85704ZM8 11.8139V14.6424H5V11.8139H8ZM9.5 10.3997H3.5V16.0566H9.5V10.3997ZM16 4.27128V7.09976H13V4.27128H16ZM17.5 2.85704H11.5V8.514H17.5V2.85704ZM11.5 10.3997H13V11.8139H11.5V10.3997ZM13 11.8139H14.5V13.2281H13V11.8139ZM14.5 10.3997H16V11.8139H14.5V10.3997ZM11.5 13.2281H13V14.6424H11.5V13.2281ZM13 14.6424H14.5V16.0566H13V14.6424ZM14.5 13.2281H16V14.6424H14.5V13.2281ZM16 11.8139H17.5V13.2281H16V11.8139ZM16 14.6424H17.5V16.0566H16V14.6424ZM20.5 4.7427H18.5V1.91422H15.5V0.0285645H20.5V4.7427ZM20.5 18.8851V14.171H18.5V16.9994H15.5V18.8851H20.5ZM0.5 18.8851H5.5V16.9994H2.5V14.171H0.5V18.8851ZM0.5 0.0285645V4.7427H2.5V1.91422H5.5V0.0285645H0.5Z" fill="white"/>
</svg>
