<svg width="12" height="12" viewBox="0 0 12 12" fill="none" xmlns="http://www.w3.org/2000/svg">
<path d="M6 6C6.51918 6 7.02669 5.84605 7.45837 5.55761C7.89005 5.26917 8.2265 4.8592 8.42518 4.37954C8.62386 3.89989 8.67585 3.37209 8.57456 2.86289C8.47328 2.35369 8.22327 1.88596 7.85616 1.51884C7.48904 1.15173 7.02131 0.901725 6.51211 0.800439C6.00291 0.699153 5.47511 0.751136 4.99546 0.949816C4.5158 1.1485 4.10583 1.48495 3.81739 1.91663C3.52895 2.34831 3.375 2.85582 3.375 3.375C3.375 4.07119 3.65156 4.73887 4.14384 5.23116C4.63613 5.72344 5.30381 6 6 6ZM6 6.75C4.37297 6.75 1.125 7.755 1.125 9.75V11.25H10.875V9.75C10.875 7.755 7.62703 6.75 6 6.75Z" fill="#141921"/>
</svg>
